<svg xmlns="http://www.w3.org/2000/svg" xmlns:xlink="http://www.w3.org/1999/xlink" width="1344" zoomAndPan="magnify" viewBox="0 0 1008 1295.99994" height="1728" preserveAspectRatio="xMidYMid meet" version="1.0"><defs><clipPath id="fe21da2fb1"><path d="M 387 749 L 929.171875 749 L 929.171875 752 L 387 752 Z M 387 749 " clip-rule="nonzero"/></clipPath><clipPath id="0e17cf0463"><path d="M 78.671875 461 L 539 461 L 539 865 L 78.671875 865 Z M 78.671875 461 " clip-rule="nonzero"/></clipPath><clipPath id="52bfc94bdf"><path d="M 78.671875 460.867188 L 541 460.867188 L 541 865.117188 L 78.671875 865.117188 Z M 78.671875 460.867188 " clip-rule="nonzero"/></clipPath><clipPath id="3669e3c6a7"><path d="M 440 600 L 929.171875 600 L 929.171875 747 L 440 747 Z M 440 600 " clip-rule="nonzero"/></clipPath><clipPath id="7e959173e9"><path d="M 387 838 L 929.171875 838 L 929.171875 842 L 387 842 Z M 387 838 " clip-rule="nonzero"/></clipPath></defs><g clip-path="url(#fe21da2fb1)"><path stroke-linecap="butt" transform="matrix(0.0511817, 0, 0, 0.0511968, 78.679778, 460.868147)" fill="none" stroke-linejoin="miter" d="M 6057.003284 5660.96351 L 16617.036934 5660.96351 " stroke="#000000" stroke-width="49.988998" stroke-opacity="1" stroke-miterlimit="4"/></g><g clip-path="url(#0e17cf0463)"><path fill="#000000" d="M 504.972656 602.222656 L 492.074219 652.140625 L 485.472656 652.140625 C 486.085938 649.9375 486.445312 648.300781 486.699219 647.171875 C 487.980469 642.15625 488.644531 638.058594 488.644531 634.734375 C 488.644531 630.023438 486.957031 627.105469 483.476562 625.824219 C 480.046875 624.59375 471.753906 623.980469 458.652344 623.980469 L 431.117188 623.980469 L 428.609375 632.941406 C 418.476562 670.671875 407.265625 702.160156 394.929688 727.398438 C 382.597656 752.640625 367.089844 775.675781 348.507812 796.515625 C 329.519531 817.964844 308.074219 834.808594 283.96875 846.839844 C 259.914062 858.921875 235.960938 864.964844 212.316406 864.964844 C 185.445312 864.964844 161.339844 858.257812 139.84375 844.945312 C 120.699219 833.171875 105.652344 816.53125 95.007812 795.082031 C 84.257812 773.527344 78.882812 749.566406 78.882812 723.304688 C 78.882812 688.4375 88.351562 660.585938 107.339844 639.597656 C 126.226562 618.65625 151.460938 608.210938 182.9375 608.210938 C 218.199219 608.210938 255.871094 627.105469 295.894531 664.988281 C 309.304688 677.585938 327.78125 697.960938 351.375 726.117188 L 356.902344 732.570312 C 362.6875 720.792969 365.605469 708.40625 365.605469 695.347656 C 365.605469 675.074219 358.03125 658.335938 342.980469 645.023438 C 327.882812 631.660156 308.023438 624.289062 283.40625 622.703125 C 286.375 616.8125 288.730469 610.210938 290.417969 602.886719 L 417.195312 602.222656 C 418.117188 598.585938 418.832031 595.925781 419.34375 594.132812 C 424.566406 573.039062 428.863281 557.886719 432.191406 548.621094 C 435.519531 539.402344 439.816406 530.855469 445.089844 523.125 C 454.867188 508.378906 468.273438 494.453125 485.320312 481.246094 C 502.71875 467.832031 517.460938 461.074219 529.640625 461.074219 C 532.046875 461.074219 535.066406 461.328125 538.753906 461.890625 C 537.269531 472.488281 533.683594 488.617188 528.207031 510.375 L 526.980469 515.648438 L 520.328125 515.648438 C 522.425781 506.792969 523.449219 500.597656 523.449219 496.960938 C 523.449219 488.054688 519.355469 483.652344 511.113281 483.652344 C 498.371094 483.652344 486.035156 489.230469 474.007812 500.390625 C 467.660156 506.332031 462.746094 513.601562 459.164062 522.097656 C 455.582031 530.648438 450.769531 546.726562 444.730469 570.328125 L 437.871094 597.257812 L 436.644531 602.222656 Z M 412.179688 623.980469 L 330.441406 623.316406 C 343.085938 630.023438 353.269531 639.75 361.152344 652.601562 C 369.035156 665.398438 372.921875 678.863281 372.921875 692.839844 C 372.921875 714.703125 365.960938 738.867188 352.042969 765.335938 C 318.210938 718.746094 285.300781 683.0625 253.3125 658.230469 C 221.375 633.453125 192.355469 621.011719 166.199219 621.011719 C 143.578125 621.011719 124.792969 629.511719 109.953125 646.507812 C 95.109375 663.554688 87.6875 685.058594 87.6875 711.066406 C 87.6875 750.640625 100.839844 783.203125 127.25 808.699219 C 153.710938 834.246094 187.339844 847.046875 228.285156 847.046875 C 273.683594 847.046875 312.222656 827.898438 343.75 789.757812 C 375.277344 751.511719 398.105469 696.269531 412.179688 623.980469 Z M 412.179688 623.980469 " fill-opacity="1" fill-rule="nonzero"/></g><g clip-path="url(#52bfc94bdf)"><path stroke-linecap="butt" transform="matrix(0.0511817, 0, 0, 0.0511968, 78.679778, 460.868147)" fill="none" stroke-linejoin="miter" d="M 8329.00983 2761.002413 L 8076.997145 3736.023536 L 7948.014275 3736.023536 C 7959.996707 3692.991068 7967.01826 3661.021911 7971.97914 3638.971586 C 7997.012501 3541.004052 8009.98711 3460.966713 8009.98711 3396.036516 C 8009.98711 3304.020281 7977.016341 3247.02515 7909.014129 3221.999175 C 7842.004094 3197.965084 7679.974133 3185.986188 7423.992744 3185.986188 L 6886.00443 3185.986188 L 6837.006203 3361.015412 C 6639.028946 4097.984583 6419.98703 4713.028426 6178.964602 5205.994345 C 5938.018494 5699.036563 5635.023231 6148.970014 5271.963164 6556.023593 C 4900.96569 6974.979771 4481.962164 7303.979777 4010.983885 7538.979782 C 3540.997782 7774.97167 3072.99603 7893.005763 2611.023656 7893.005763 C 2086.009949 7893.005763 1615.03167 7762.00089 1195.035969 7501.974911 C 820.985645 7272.010621 526.996287 6946.978147 319.020949 6528.021969 C 108.984938 6107.005727 3.966932 5638.989484 3.966932 5126.033305 C 3.966932 4444.991083 188.969581 3900.981332 559.967056 3491.028401 C 928.980179 3081.991056 1422.015292 2877.968324 2037.011723 2877.968324 C 2725.96342 2877.968324 3462.005314 3247.02515 4243.992585 3986.96997 C 4506.00335 4233.033287 4867.002744 4631.007321 5327.982943 5180.968371 L 5435.977477 5307.013828 C 5549.009211 5076.973239 5606.021166 4835.030052 5606.021166 4579.963488 C 5606.021166 4183.973221 5458.034311 3857.033279 5163.968631 3597.0073 C 4868.987096 3335.989437 4480.969989 3192.013785 3999.993629 3161.036512 C 4057.99776 3045.978068 4104.019458 2917.03326 4136.990228 2773.973192 L 6613.995584 2761.002413 C 6632.007393 2689.96832 6645.974177 2638.008904 6655.972258 2602.987799 C 6758.013735 2190.974804 6841.967083 1895.012135 6906.992767 1714.031612 C 6972.01845 1533.966674 7055.971798 1367.025112 7159.005451 1216.029979 C 7350.037477 928.002376 7611.971922 655.9975 7945.037747 398.031586 C 8284.972483 136.02184 8573.008786 4.025084 8810.978366 4.025084 C 8857.99224 4.025084 8916.988547 8.9845 8989.035784 19.971513 C 8960.033718 226.969894 8889.970834 542.007238 8782.968476 966.991013 L 8759.003612 1069.994262 L 8629.028565 1069.994262 C 8670.013063 897.025102 8690.009224 776.01536 8690.009224 704.981267 C 8690.009224 531.020225 8610.02458 445.031587 8448.986796 445.031587 C 8200.02696 445.031587 7959.004531 553.986134 7724.01148 771.971528 C 7599.989489 888.021855 7503.977388 1030.013741 7433.990825 1195.96342 C 7364.004262 1362.981281 7269.976512 1677.026741 7151.983899 2138.023504 L 7017.963828 2664.026761 L 6993.998963 2761.002413 Z M 6515.999131 3185.986188 L 4918.977499 3173.015408 C 5166.029304 3304.020281 5364.998737 3494.004051 5519.014969 3745.026783 C 5673.031201 3994.981334 5748.97082 4257.982962 5748.97082 4530.979721 C 5748.97082 4958.023561 5612.966397 5430.007337 5341.033873 5947.007347 C 4680.015743 5036.992718 4037.009423 4340.004068 3412.014912 3854.973214 C 2788.012576 3371.010542 2221.022196 3127.999173 1709.975274 3127.999173 C 1267.99906 3127.999173 900.970289 3294.025151 611.025955 3626.000807 C 321.005301 3958.968346 175.994973 4378.992705 175.994973 4886.989469 C 175.994973 5659.971627 432.968538 6295.997614 948.97634 6793.999247 C 1465.976317 7292.992764 2123.025743 7543.023613 2923.024823 7543.023613 C 3810.0301 7543.023613 4563.015305 7169.007372 5179.003912 6424.026837 C 5794.992519 5676.986238 6241.013757 4597.969982 6515.999131 3185.986188 Z M 6515.999131 3185.986188 " stroke="#000000" stroke-width="7.618" stroke-opacity="1" stroke-miterlimit="4"/></g><path stroke-linecap="butt" transform="matrix(0.0511817, 0, 0, 0.0511968, 78.679778, 460.868147)" fill-opacity="1" fill="#000000" fill-rule="nonzero" stroke-linejoin="miter" d="M 8534.00864 5037.984602 C 8516.989007 5131.984603 8581.022515 5213.013826 8677.034616 5220.033307 C 8773.962572 5226.976488 8867.990321 5158.002461 8884.017778 5064.002459 C 8901.037411 4967.026808 8837.996079 4884.013819 8740.991802 4876.994339 C 8643.987526 4870.966741 8552.020449 4942.992717 8534.00864 5037.984602 Z M 10915.994072 4679.991088 C 10917.978423 4650.997581 10892.029207 4601.02193 10874.017398 4613.99271 C 10747.018879 4766.971609 10293.976088 5139.004084 9879.017588 5165.021942 C 9698.975818 5177.992721 9559.994868 5071.02194 9547.020259 4939.025184 C 9477.033696 4337.028419 10185.981555 3377.038139 10517.978883 3354.987814 C 10632.002793 3347.968334 10684.969724 3399.012166 10691.991276 3465.010544 C 10718.016814 3618.981326 10596.971351 3890.986202 10555.986853 4001.008931 C 10548.965301 4018.023542 10546.980949 4038.013802 10569.037783 4033.969971 C 10730.991422 4024.966724 11021.012077 3648.966716 11005.976796 3531.008922 C 10987.964987 3408.015413 10758.009136 3213.987811 10465.011953 3233.978072 C 9823.989985 3276.018657 9169.001232 4293.004067 9230.974067 4847.008948 C 9269.974213 5195.999215 9771.023055 5402.005713 10058.983036 5357.981361 C 10413.037199 5302.969997 10877.986101 4782.994337 10915.994072 4679.991088 Z M 12445.013492 3580.984572 C 12462.033126 3717.025159 12290.99726 3927.991073 12007.998158 4045.033283 C 11912.978233 4084.02192 11808.036549 4102.028414 11704.010719 4113.015427 C 11830.017062 3840.018668 11926.029163 3600.974832 12068.978817 3402.979698 C 12244.975562 3411.982945 12427.001683 3451.963466 12445.013492 3580.984572 Z M 11001.015916 3319.96671 C 10969.037323 3331.030022 10897.982262 3456.007297 10897.982262 3493.012168 C 10897.982262 3497.971583 10899.966614 3502.015415 10903.019463 3502.015415 C 10990.02566 3474.013791 11331.028893 3422.969959 11722.022528 3408.015413 C 11607.998618 3603.034897 11480.007924 3883.966721 11360.030958 4152.004064 C 11345.987853 4154.979714 11263.026681 4150.020298 11247.9914 4152.004064 C 11217.004983 4182.981338 11279.969993 4262.026794 11308.972059 4282.017054 C 11223.03436 4488.023551 11039.023886 4970.002457 11039.023886 5083.992719 C 11039.023886 5137.020318 11229.979591 5274.968373 11324.00734 5274.968373 C 11315.993612 5271.00084 11311.032732 5256.961879 11311.032732 5234.987852 C 11311.032732 5108.026811 11501.988437 4578.971605 11643.030061 4255.999196 L 11801.014996 4228.989455 C 11884.968344 4652.981347 12161.022214 5429.015454 12261.995195 5503.025195 C 12339.003311 5541.021949 12587.963147 5384.991102 12624.978941 5320.97649 C 12468.978357 5325.020322 12142.018229 4650.997581 12000.976606 4180.997571 C 12099.965234 4156.96348 12192.008632 4133.005687 12258.026491 4105.995946 C 12651.004479 3956.98458 12825.016872 3746.018666 12805.020711 3605.018664 C 12780.979525 3425.030024 12484.013638 3333.013788 12074.016018 3299.97645 C 12016.011887 3259.995929 11921.984138 3219.023526 11878.023112 3219.023526 C 11860.011303 3219.023526 11841.007318 3230.010539 11830.017062 3242.981319 C 11819.026805 3256.028397 11808.036549 3268.999176 11799.030644 3285.021904 C 11745.987393 3281.969956 11693.020463 3281.969956 11638.985036 3281.969956 C 11311.032732 3281.969956 11091.990816 3308.979697 11001.015916 3319.96671 Z M 14290.002785 4679.991088 C 14291.987137 4650.997581 14266.03792 4601.02193 14248.026111 4613.99271 C 14121.027593 4766.971609 13667.984801 5139.004084 13253.026301 5165.021942 C 13072.984531 5177.992721 12934.995757 5071.02194 12921.028973 4939.025184 C 12850.966088 4337.028419 13560.982444 3377.038139 13891.987597 3354.987814 C 14007.003683 3347.968334 14058.978437 3399.012166 14065.99999 3465.010544 C 14092.025527 3618.981326 13971.97224 3890.986202 13929.995567 4001.008931 C 13922.974014 4018.023542 13920.989662 4038.013802 13942.970175 4033.969971 C 14105.992311 4024.966724 14396.012966 3648.966716 14379.985509 3531.008922 C 14362.965876 3408.015413 14132.017849 3213.987811 13840.012842 3233.978072 C 13197.998698 3276.018657 12544.002121 4293.004067 12604.98278 4847.008948 C 12644.975102 5195.999215 13146.023944 5402.005713 13432.99175 5357.981361 C 13786.969591 5302.969997 14252.986991 4782.994337 14290.002785 4679.991088 Z M 14368.995253 4173.978091 C 14496.985947 4148.036532 14650.010003 4124.00244 14815.016491 4104.01218 C 14707.021958 4353.966731 14455.009273 4885.997586 14453.024921 5103.98298 C 14460.962329 5158.002461 14645.964978 5317.008958 14731.978999 5309.989477 C 15032.98991 5245.974865 15530.985903 5179.976488 15970.977765 5174.025189 C 15998.987654 5167.005708 16058.976137 5090.020317 16045.009353 5065.986225 C 15893.969649 5042.028433 15281.033891 5042.028433 14758.004536 5090.020317 C 14835.012652 4836.021935 15008.032869 4419.965109 15161.97278 4068.991075 C 15490.001405 4042.973218 15831.996814 4031.986205 16113.011564 4045.033283 C 16137.968605 4029.010555 16190.01968 3955.000813 16165.978494 3940.961852 C 15918.010835 3924.02354 15559.987968 3919.979709 15226.006288 3929.974839 C 15324.994917 3721.984575 15431.997274 3511.018662 15473.973948 3451.963466 C 15728.96316 3419.002426 16036.995624 3391.992685 16368.000777 3411.982945 C 16391.965642 3399.012166 16454.014797 3325.994307 16434.018637 3313.023528 C 15998.987654 3270.982942 15315.989012 3290.973203 15099.007769 3304.020281 C 15060.999799 3324.010541 15099.007769 3427.01379 15125.033307 3479.96509 C 15059.015448 3597.0073 14971.017075 3767.992693 14887.979582 3947.981333 C 14722.973094 3958.968346 14580.02344 3973.99919 14476.989786 3993.989451 C 14426.007208 4022.982958 14345.030388 4150.020298 14368.995253 4173.978091 Z M 14368.995253 4173.978091 " stroke="#000000" stroke-width="7.618" stroke-opacity="1" stroke-miterlimit="4"/><path fill="#000000" d="M 927.734375 605.550781 L 921.695312 622.445312 C 917.445312 621.574219 547.09375 621.164062 543.871094 621.164062 C 530.871094 621.164062 517 631.148438 502.207031 651.011719 C 495.296875 660.535156 489.363281 670.828125 484.347656 681.988281 C 479.382812 693.148438 473.238281 710.246094 465.871094 733.132812 L 463.976562 738.816406 C 456.757812 740.402344 449.796875 742.296875 443.195312 744.550781 L 445.089844 739.480469 L 459.933594 700.265625 C 473.957031 662.53125 480.96875 640.3125 480.96875 633.605469 C 480.96875 630.125 477.28125 619.015625 474.210938 619.015625 C 472.523438 619.015625 468.734375 620.5 462.851562 623.46875 L 460.648438 618.296875 C 476.308594 610.671875 492.535156 611.589844 504.921875 602.324219 C 505.433594 604.320312 505.738281 606.164062 505.738281 607.90625 C 505.738281 616.457031 501.851562 630.839844 494.019531 650.960938 L 498.0625 646.25 C 524.113281 617.632812 542.539062 603.296875 553.441406 603.296875 C 555.746094 603.296875 924.917969 604.066406 927.734375 605.550781 Z M 927.734375 605.550781 " fill-opacity="1" fill-rule="nonzero"/><g clip-path="url(#3669e3c6a7)"><path stroke-linecap="butt" transform="matrix(0.0511817, 0, 0, 0.0511968, 78.679778, 460.868147)" fill="none" stroke-linejoin="miter" d="M 16589.027044 2826.008908 L 16471.034431 3156.000797 C 16387.996938 3138.986187 9151.981599 3130.974823 9089.016588 3130.974823 C 8835.019552 3130.974823 8564.002882 3325.994307 8274.974403 3713.973211 C 8139.962156 3899.989449 8024.030215 4101.036531 7926.033762 4319.021925 C 7829.029485 4537.007319 7708.976198 4870.966741 7565.034368 5318.000841 L 7528.018574 5429.015454 C 7386.97695 5459.992727 7250.972527 5496.997598 7121.989657 5541.021949 L 7159.005451 5441.986233 L 7449.026106 4676.023555 C 7723.019304 3938.978086 7860.015903 3504.991064 7860.015903 3373.986191 C 7860.015903 3306.004047 7787.968666 3089.010536 7727.980183 3089.010536 C 7695.009414 3089.010536 7620.977826 3118.004043 7506.038061 3175.991057 L 7462.99289 3074.971575 C 7768.964681 2926.036507 8086.00305 2943.966702 8328.017654 2762.986179 C 8338.015735 2801.974816 8343.96879 2837.987804 8343.96879 2872.017025 C 8343.96879 3039.034886 8268.029171 3319.96671 8115.005115 3712.981328 L 8193.997583 3620.965092 C 8702.983832 3062.000795 9062.991051 2781.984556 9276.003589 2781.984556 C 9321.033112 2781.984556 16533.999441 2797.0154 16589.027044 2826.008908 Z M 16589.027044 2826.008908 " stroke="#000000" stroke-width="7.618" stroke-opacity="1" stroke-miterlimit="4"/></g><g clip-path="url(#7e959173e9)"><path stroke-linecap="butt" transform="matrix(0.0511817, 0, 0, 0.0511968, 78.679778, 460.868147)" fill="none" stroke-linejoin="miter" d="M 6057.003284 7406.983026 L 16593.987924 7406.983026 " stroke="#000000" stroke-width="49.988998" stroke-opacity="1" stroke-miterlimit="4"/></g><path fill="#000000" d="M 389.507812 850.21875 L 393.804688 850.21875 L 397.335938 860.867188 L 400.917969 850.21875 L 405.167969 850.21875 L 405.167969 864.09375 L 402.300781 864.09375 L 402.558594 853.292969 L 398.976562 864.09375 L 395.902344 864.09375 L 392.21875 853.136719 L 392.527344 864.09375 L 389.507812 864.09375 Z M 407.164062 857.027344 C 407.164062 854.621094 407.726562 852.832031 408.851562 851.703125 C 409.980469 850.527344 411.71875 849.914062 414.074219 849.914062 C 416.429688 849.914062 418.167969 850.527344 419.292969 851.703125 C 420.421875 852.882812 420.984375 854.675781 420.984375 857.132812 C 420.984375 859.589844 420.421875 861.433594 419.292969 862.609375 C 418.167969 863.785156 416.429688 864.402344 414.074219 864.402344 C 411.71875 864.402344 409.929688 863.785156 408.800781 862.609375 C 407.726562 861.433594 407.164062 859.539062 407.164062 857.027344 Z M 414.074219 852.320312 C 412.792969 852.320312 411.871094 852.675781 411.257812 853.496094 C 410.644531 854.265625 410.335938 855.441406 410.335938 857.027344 C 410.335938 858.71875 410.644531 860 411.257812 860.765625 C 411.820312 861.585938 412.792969 861.996094 414.074219 861.996094 C 415.351562 861.996094 416.273438 861.585938 416.886719 860.816406 C 417.503906 860 417.808594 858.769531 417.808594 857.132812 C 417.808594 855.492188 417.503906 854.265625 416.886719 853.496094 C 416.273438 852.726562 415.351562 852.320312 414.074219 852.320312 Z M 425.84375 850.21875 L 425.84375 858.515625 C 425.84375 859.792969 426.101562 860.714844 426.5625 861.226562 C 427.023438 861.738281 427.839844 861.996094 428.96875 861.996094 C 430.144531 861.996094 430.914062 861.738281 431.371094 861.226562 C 431.882812 860.714844 432.089844 859.84375 432.089844 858.515625 L 432.089844 850.21875 L 435.007812 850.21875 L 435.007812 858.617188 C 435.007812 859.589844 434.957031 860.355469 434.800781 860.972656 C 434.699219 861.535156 434.496094 861.996094 434.1875 862.351562 C 433.625 863.019531 432.960938 863.480469 432.089844 863.785156 C 431.269531 864.09375 430.246094 864.246094 428.96875 864.246094 C 427.738281 864.246094 426.664062 864.09375 425.84375 863.785156 C 424.976562 863.480469 424.308594 863.019531 423.746094 862.351562 C 423.441406 861.996094 423.234375 861.535156 423.132812 860.972656 C 423.03125 860.40625 422.929688 859.640625 422.929688 858.617188 L 422.929688 850.21875 Z M 443.347656 864.09375 C 442.070312 864.09375 441.097656 863.992188 440.484375 863.785156 C 439.816406 863.53125 439.253906 863.171875 438.742188 862.660156 C 438.28125 862.148438 437.976562 861.636719 437.769531 861.023438 C 437.617188 860.40625 437.515625 859.539062 437.515625 858.460938 L 437.515625 850.21875 L 440.433594 850.21875 L 440.433594 858.359375 C 440.433594 859.179688 440.484375 859.742188 440.535156 860.101562 C 440.585938 860.40625 440.738281 860.664062 440.894531 860.867188 C 441.199219 861.226562 441.507812 861.433594 441.917969 861.585938 C 442.324219 861.738281 442.890625 861.789062 443.605469 861.789062 L 447.035156 861.789062 L 447.035156 864.09375 Z M 454.917969 852.625 L 451.539062 852.625 L 451.539062 861.6875 L 454.917969 861.6875 C 456.195312 861.6875 457.066406 861.328125 457.578125 860.714844 C 458.039062 860.050781 458.292969 858.871094 458.292969 857.132812 C 458.292969 855.441406 458.039062 854.265625 457.578125 853.597656 C 457.066406 852.933594 456.195312 852.625 454.917969 852.625 Z M 448.570312 850.21875 L 454.96875 850.21875 C 457.167969 850.21875 458.859375 850.78125 459.882812 851.960938 C 460.957031 853.136719 461.519531 854.929688 461.519531 857.386719 C 461.519531 858.667969 461.3125 859.742188 460.957031 860.664062 C 460.597656 861.585938 460.085938 862.300781 459.371094 862.867188 C 458.804688 863.328125 458.242188 863.632812 457.628906 863.839844 C 456.964844 863.992188 456.144531 864.09375 455.019531 864.09375 L 448.570312 864.09375 Z M 466.585938 864.09375 L 463.515625 864.09375 L 463.515625 850.21875 L 466.585938 850.21875 Z M 469.453125 850.21875 L 473.1875 850.21875 L 478.871094 860.203125 L 478.714844 850.21875 L 481.683594 850.21875 L 481.683594 864.09375 L 478.304688 864.09375 L 472.316406 853.597656 L 472.472656 864.09375 L 469.453125 864.09375 Z M 489.566406 858.308594 L 489.566406 855.851562 L 496.476562 855.851562 L 496.476562 864.09375 L 490.179688 864.09375 C 489.003906 864.09375 488.132812 863.992188 487.519531 863.785156 C 486.90625 863.632812 486.289062 863.328125 485.777344 862.867188 C 485.0625 862.300781 484.550781 861.585938 484.191406 860.664062 C 483.835938 859.742188 483.628906 858.667969 483.628906 857.386719 C 483.628906 854.929688 484.191406 853.136719 485.214844 851.960938 C 486.289062 850.78125 487.929688 850.21875 490.179688 850.21875 L 496.476562 850.21875 L 496.476562 852.625 L 490.179688 852.625 C 489.054688 852.625 488.183594 852.984375 487.671875 853.703125 C 487.160156 854.46875 486.90625 855.648438 486.90625 857.285156 C 486.90625 858.769531 487.160156 859.894531 487.671875 860.5625 C 488.183594 861.226562 489.054688 861.585938 490.179688 861.585938 L 493.457031 861.585938 L 493.457031 858.308594 Z M 512.085938 852.625 C 511.011719 852.625 510.242188 852.882812 509.679688 853.394531 C 509.167969 853.957031 508.863281 854.777344 508.8125 855.851562 L 516.898438 855.851562 L 516.898438 858.257812 L 508.757812 858.257812 C 508.757812 859.488281 509.015625 860.355469 509.527344 860.867188 C 510.039062 861.433594 510.910156 861.6875 512.085938 861.6875 L 516.898438 861.6875 L 516.898438 864.09375 L 511.933594 864.09375 C 510.859375 864.09375 509.988281 863.992188 509.375 863.839844 C 508.757812 863.632812 508.144531 863.328125 507.632812 862.867188 C 506.917969 862.300781 506.355469 861.585938 505.996094 860.664062 C 505.636719 859.742188 505.484375 858.667969 505.484375 857.386719 C 505.484375 854.929688 505.996094 853.136719 507.070312 851.960938 C 508.144531 850.78125 509.785156 850.21875 512.035156 850.21875 L 516.898438 850.21875 L 516.898438 852.625 Z M 519.40625 850.21875 L 523.140625 850.21875 L 528.824219 860.203125 L 528.667969 850.21875 L 531.636719 850.21875 L 531.636719 864.09375 L 528.261719 864.09375 L 522.273438 853.597656 L 522.425781 864.09375 L 519.40625 864.09375 Z M 539.519531 858.308594 L 539.519531 855.851562 L 546.429688 855.851562 L 546.429688 864.09375 L 540.132812 864.09375 C 539.007812 864.09375 538.085938 863.992188 537.472656 863.785156 C 536.859375 863.632812 536.296875 863.328125 535.730469 862.867188 C 535.015625 862.300781 534.503906 861.585938 534.144531 860.664062 C 533.789062 859.742188 533.582031 858.667969 533.582031 857.386719 C 533.582031 854.929688 534.144531 853.136719 535.21875 851.960938 C 536.246094 850.78125 537.933594 850.21875 540.132812 850.21875 L 546.429688 850.21875 L 546.429688 852.625 L 540.132812 852.625 C 539.007812 852.625 538.136719 852.984375 537.625 853.703125 C 537.113281 854.46875 536.859375 855.648438 536.859375 857.285156 C 536.859375 858.769531 537.113281 859.894531 537.625 860.5625 C 538.136719 861.226562 539.007812 861.585938 540.132812 861.585938 L 543.410156 861.585938 L 543.410156 858.308594 Z M 551.90625 864.09375 L 548.835938 864.09375 L 548.835938 850.21875 L 551.90625 850.21875 Z M 554.773438 850.21875 L 558.507812 850.21875 L 564.1875 860.203125 L 564.035156 850.21875 L 567.003906 850.21875 L 567.003906 864.09375 L 563.625 864.09375 L 557.636719 853.597656 L 557.792969 864.09375 L 554.773438 864.09375 Z M 575.550781 852.625 C 574.476562 852.625 573.710938 852.882812 573.144531 853.394531 C 572.632812 853.957031 572.328125 854.777344 572.277344 855.851562 L 580.363281 855.851562 L 580.363281 858.257812 L 572.226562 858.257812 C 572.277344 859.488281 572.53125 860.355469 572.992188 860.867188 C 573.503906 861.433594 574.375 861.6875 575.550781 861.6875 L 580.363281 861.6875 L 580.363281 864.09375 L 575.398438 864.09375 C 574.324219 864.09375 573.453125 863.992188 572.839844 863.839844 C 572.226562 863.632812 571.660156 863.328125 571.097656 862.867188 C 570.382812 862.300781 569.871094 861.585938 569.511719 860.664062 C 569.152344 859.742188 568.949219 858.667969 568.949219 857.386719 C 568.949219 854.929688 569.511719 853.136719 570.535156 851.960938 C 571.609375 850.78125 573.25 850.21875 575.5 850.21875 L 580.363281 850.21875 L 580.363281 852.625 Z M 588.601562 852.625 C 587.578125 852.625 586.761719 852.882812 586.25 853.394531 C 585.6875 853.957031 585.378906 854.777344 585.328125 855.851562 L 593.414062 855.851562 L 593.414062 858.257812 L 585.328125 858.257812 C 585.328125 859.488281 585.582031 860.355469 586.09375 860.867188 C 586.605469 861.433594 587.425781 861.6875 588.601562 861.6875 L 593.414062 861.6875 L 593.414062 864.09375 L 588.5 864.09375 C 587.375 864.09375 586.554688 863.992188 585.941406 863.839844 C 585.277344 863.632812 584.714844 863.328125 584.148438 862.867188 C 583.433594 862.300781 582.921875 861.585938 582.5625 860.664062 C 582.207031 859.742188 582.050781 858.667969 582.050781 857.386719 C 582.050781 854.929688 582.5625 853.136719 583.636719 851.960938 C 584.660156 850.78125 586.351562 850.21875 588.550781 850.21875 L 593.414062 850.21875 L 593.414062 852.625 Z M 602.472656 852.675781 L 598.890625 852.675781 L 598.890625 856.160156 L 602.472656 856.160156 C 603.445312 856.160156 604.109375 856.054688 604.519531 855.800781 C 604.878906 855.542969 605.082031 855.082031 605.082031 854.417969 C 605.082031 853.804688 604.878906 853.34375 604.519531 853.085938 C 604.164062 852.832031 603.445312 852.675781 602.472656 852.675781 Z M 595.972656 850.21875 L 603.136719 850.21875 C 604.828125 850.21875 606.054688 850.527344 606.824219 851.191406 C 607.644531 851.910156 608 852.933594 608 854.367188 C 608 855.441406 607.796875 856.3125 607.285156 856.976562 C 606.824219 857.644531 606.105469 858.105469 605.238281 858.308594 L 608.667969 864.09375 L 605.390625 864.09375 L 602.320312 858.617188 L 598.890625 858.617188 L 598.890625 864.09375 L 595.972656 864.09375 Z M 622.230469 852.675781 L 615.011719 852.675781 C 614.246094 852.675781 613.683594 852.832031 613.324219 853.136719 C 612.964844 853.394531 612.761719 853.855469 612.761719 854.46875 C 612.761719 854.980469 612.914062 855.390625 613.222656 855.648438 C 613.527344 855.902344 613.988281 856.003906 614.601562 856.003906 L 618.441406 856.003906 C 620.078125 856.003906 621.207031 856.3125 621.871094 856.925781 C 622.535156 857.539062 622.894531 858.515625 622.894531 859.945312 C 622.894531 861.378906 622.484375 862.40625 621.71875 863.070312 C 620.949219 863.734375 619.722656 864.09375 618.03125 864.09375 L 610.253906 864.09375 L 610.253906 861.636719 L 617.570312 861.636719 C 618.390625 861.636719 619.003906 861.484375 619.3125 861.277344 C 619.671875 861.023438 619.824219 860.613281 619.824219 860.050781 C 619.824219 859.488281 619.671875 859.078125 619.363281 858.820312 C 619.054688 858.566406 618.542969 858.460938 617.777344 858.460938 L 614.347656 858.460938 C 612.710938 858.460938 611.53125 858.105469 610.816406 857.488281 C 610.097656 856.824219 609.691406 855.851562 609.691406 854.46875 C 609.691406 852.984375 610.097656 851.910156 610.867188 851.242188 C 611.636719 850.527344 612.863281 850.21875 614.601562 850.21875 L 622.230469 850.21875 Z M 630.980469 850.21875 L 634.15625 850.21875 L 637.328125 860.867188 L 640.039062 850.21875 L 643.46875 850.21875 L 646.59375 860.867188 L 649.613281 850.21875 L 652.582031 850.21875 L 648.332031 864.09375 L 644.75 864.09375 L 641.78125 853.703125 L 639.171875 864.09375 L 635.640625 864.09375 Z M 656.878906 850.21875 L 656.878906 855.851562 L 662.253906 855.851562 L 662.253906 850.21875 L 665.171875 850.21875 L 665.171875 864.09375 L 662.253906 864.09375 L 662.253906 858.308594 L 656.878906 858.308594 L 656.878906 864.09375 L 653.960938 864.09375 L 653.960938 850.21875 Z M 667.117188 857.027344 C 667.117188 854.621094 667.679688 852.832031 668.855469 851.703125 C 669.980469 850.527344 671.722656 849.914062 674.078125 849.914062 C 676.429688 849.914062 678.171875 850.527344 679.296875 851.703125 C 680.421875 852.882812 680.984375 854.675781 680.984375 857.132812 C 680.984375 859.589844 680.421875 861.433594 679.296875 862.609375 C 678.171875 863.785156 676.429688 864.402344 674.078125 864.402344 C 671.671875 864.402344 669.929688 863.785156 668.804688 862.609375 C 667.679688 861.433594 667.117188 859.539062 667.117188 857.027344 Z M 674.078125 852.320312 C 672.796875 852.320312 671.875 852.675781 671.261719 853.496094 C 670.648438 854.265625 670.339844 855.441406 670.339844 857.027344 C 670.339844 858.71875 670.597656 860 671.210938 860.765625 C 671.824219 861.585938 672.746094 861.996094 674.078125 861.996094 C 675.304688 861.996094 676.277344 861.585938 676.890625 860.816406 C 677.503906 860 677.8125 858.769531 677.8125 857.132812 C 677.8125 855.492188 677.503906 854.265625 676.890625 853.496094 C 676.277344 852.726562 675.304688 852.320312 674.078125 852.320312 Z M 696.1875 852.574219 C 694.957031 852.574219 694.089844 852.984375 693.578125 853.753906 C 693.066406 854.519531 692.757812 855.75 692.757812 857.539062 C 692.757812 859.027344 693.015625 860.101562 693.527344 860.714844 C 694.039062 861.378906 694.90625 861.6875 696.1875 861.6875 L 701 861.6875 L 701 864.09375 L 696.035156 864.09375 C 694.957031 864.09375 694.089844 863.992188 693.472656 863.839844 C 692.859375 863.632812 692.246094 863.328125 691.734375 862.867188 C 691.019531 862.300781 690.453125 861.585938 690.097656 860.664062 C 689.789062 859.742188 689.585938 858.667969 689.585938 857.386719 C 689.585938 854.929688 690.097656 853.136719 691.171875 851.960938 C 692.246094 850.78125 693.882812 850.21875 696.136719 850.21875 L 701 850.21875 L 701 852.574219 Z M 708.523438 852.984375 L 706.527344 858.308594 L 710.621094 858.308594 Z M 707.089844 850.21875 L 710.210938 850.21875 L 716.097656 864.09375 L 712.871094 864.09375 L 711.59375 860.765625 L 705.554688 860.765625 L 704.324219 864.09375 L 701.253906 864.09375 Z M 717.070312 850.21875 L 720.804688 850.21875 L 726.488281 860.203125 L 726.332031 850.21875 L 729.300781 850.21875 L 729.300781 864.09375 L 725.921875 864.09375 L 719.933594 853.597656 L 720.089844 864.09375 L 717.070312 864.09375 Z M 742.558594 852.675781 L 742.558594 855.902344 L 746.804688 855.902344 C 747.472656 855.902344 747.984375 855.800781 748.289062 855.492188 C 748.597656 855.238281 748.75 854.828125 748.75 854.316406 C 748.75 853.753906 748.597656 853.34375 748.289062 853.085938 C 747.984375 852.832031 747.472656 852.675781 746.804688 852.675781 Z M 746.855469 861.636719 C 747.523438 861.636719 748.035156 861.484375 748.339844 861.226562 C 748.597656 860.972656 748.75 860.5625 748.75 860 C 748.75 859.433594 748.597656 859.027344 748.289062 858.769531 C 747.984375 858.515625 747.523438 858.359375 746.855469 858.359375 L 742.558594 858.359375 L 742.558594 861.636719 Z M 747.265625 864.09375 L 739.640625 864.09375 L 739.640625 850.21875 L 746.753906 850.21875 C 747.675781 850.21875 748.390625 850.269531 748.957031 850.375 C 749.519531 850.476562 749.980469 850.628906 750.335938 850.835938 C 750.847656 851.140625 751.207031 851.550781 751.464844 852.0625 C 751.769531 852.574219 751.871094 853.1875 751.871094 853.804688 C 751.871094 854.621094 751.71875 855.238281 751.410156 855.800781 C 751.054688 856.3125 750.542969 856.773438 749.824219 857.132812 C 750.542969 857.4375 751.054688 857.847656 751.410156 858.359375 C 751.769531 858.871094 751.925781 859.539062 751.925781 860.304688 C 751.925781 861.585938 751.566406 862.558594 750.796875 863.171875 C 750.03125 863.785156 748.851562 864.09375 747.265625 864.09375 Z M 757.09375 850.21875 L 757.09375 858.515625 C 757.09375 859.792969 757.296875 860.714844 757.808594 861.226562 C 758.269531 861.738281 759.089844 861.996094 760.214844 861.996094 C 761.339844 861.996094 762.160156 861.738281 762.621094 861.226562 C 763.082031 860.714844 763.335938 859.84375 763.335938 858.515625 L 763.335938 850.21875 L 766.253906 850.21875 L 766.253906 858.617188 C 766.253906 859.589844 766.203125 860.355469 766.050781 860.972656 C 765.949219 861.535156 765.742188 861.996094 765.4375 862.351562 C 764.871094 863.019531 764.207031 863.480469 763.335938 863.785156 C 762.519531 864.09375 761.445312 864.246094 760.214844 864.246094 C 758.988281 864.246094 757.914062 864.09375 757.09375 863.785156 C 756.222656 863.480469 755.507812 863.019531 754.996094 862.351562 C 754.6875 861.996094 754.484375 861.535156 754.378906 860.972656 C 754.226562 860.40625 754.175781 859.640625 754.175781 858.617188 L 754.175781 850.21875 Z M 772.140625 864.09375 L 769.121094 864.09375 L 769.121094 850.21875 L 772.140625 850.21875 Z M 780.535156 864.09375 C 779.253906 864.09375 778.28125 863.992188 777.667969 863.785156 C 777.003906 863.53125 776.441406 863.171875 775.980469 862.660156 C 775.519531 862.148438 775.160156 861.636719 775.007812 861.023438 C 774.800781 860.40625 774.699219 859.539062 774.699219 858.460938 L 774.699219 850.21875 L 777.617188 850.21875 L 777.617188 858.359375 C 777.617188 859.179688 777.667969 859.742188 777.71875 860.101562 C 777.820312 860.40625 777.925781 860.664062 778.128906 860.867188 C 778.386719 861.226562 778.742188 861.433594 779.152344 861.585938 C 779.511719 861.738281 780.074219 861.789062 780.789062 861.789062 L 784.21875 861.789062 L 784.21875 864.09375 Z M 792.101562 852.625 L 788.722656 852.625 L 788.722656 861.6875 L 792.101562 861.6875 C 793.382812 861.6875 794.25 861.328125 794.761719 860.714844 C 795.273438 860.050781 795.480469 858.871094 795.480469 857.132812 C 795.480469 855.441406 795.273438 854.265625 794.761719 853.597656 C 794.25 852.933594 793.382812 852.625 792.101562 852.625 Z M 785.804688 850.21875 L 792.152344 850.21875 C 794.40625 850.21875 796.042969 850.78125 797.117188 851.960938 C 798.140625 853.136719 798.703125 854.929688 798.703125 857.386719 C 798.703125 858.667969 798.5 859.742188 798.140625 860.664062 C 797.78125 861.585938 797.269531 862.300781 796.554688 862.867188 C 795.992188 863.328125 795.429688 863.632812 794.8125 863.839844 C 794.199219 863.992188 793.328125 864.09375 792.253906 864.09375 L 785.804688 864.09375 Z M 811.242188 852.625 L 806.738281 852.625 L 806.738281 850.21875 L 818.765625 850.21875 L 818.765625 852.625 L 814.261719 852.625 L 814.261719 864.09375 L 811.242188 864.09375 Z M 823.066406 850.21875 L 823.066406 855.851562 L 828.441406 855.851562 L 828.441406 850.21875 L 831.359375 850.21875 L 831.359375 864.09375 L 828.441406 864.09375 L 828.441406 858.308594 L 823.066406 858.308594 L 823.066406 864.09375 L 820.148438 864.09375 L 820.148438 850.21875 Z M 839.957031 852.625 C 838.882812 852.625 838.113281 852.882812 837.550781 853.394531 C 837.039062 853.957031 836.730469 854.777344 836.679688 855.851562 L 844.765625 855.851562 L 844.765625 858.257812 L 836.628906 858.257812 C 836.679688 859.488281 836.9375 860.355469 837.398438 860.867188 C 837.910156 861.433594 838.777344 861.6875 839.957031 861.6875 L 844.765625 861.6875 L 844.765625 864.09375 L 839.804688 864.09375 C 838.726562 864.09375 837.859375 863.992188 837.242188 863.839844 C 836.628906 863.632812 836.015625 863.328125 835.503906 862.867188 C 834.785156 862.300781 834.273438 861.585938 833.917969 860.664062 C 833.558594 859.742188 833.355469 858.667969 833.355469 857.386719 C 833.355469 854.929688 833.917969 853.136719 834.941406 851.960938 C 836.015625 850.78125 837.652344 850.21875 839.90625 850.21875 L 844.765625 850.21875 L 844.765625 852.625 Z M 854.800781 850.21875 L 858.484375 850.21875 L 864.164062 860.203125 L 864.011719 850.21875 L 867.03125 850.21875 L 867.03125 864.09375 L 863.652344 864.09375 L 857.664062 853.597656 L 857.769531 864.09375 L 854.800781 864.09375 Z M 875.273438 852.984375 L 873.222656 858.308594 L 877.371094 858.308594 Z M 873.839844 850.21875 L 876.910156 850.21875 L 882.847656 864.09375 L 879.570312 864.09375 L 878.292969 860.765625 L 872.253906 860.765625 L 871.023438 864.09375 L 867.953125 864.09375 Z M 885.046875 852.625 L 880.59375 852.625 L 880.59375 850.21875 L 892.570312 850.21875 L 892.570312 852.625 L 888.066406 852.625 L 888.066406 864.09375 L 885.046875 864.09375 Z M 897.074219 864.09375 L 894.003906 864.09375 L 894.003906 850.21875 L 897.074219 850.21875 Z M 899.070312 857.027344 C 899.070312 854.621094 899.632812 852.832031 900.8125 851.703125 C 901.9375 850.527344 903.675781 849.914062 905.980469 849.914062 C 908.335938 849.914062 910.074219 850.527344 911.253906 851.703125 C 912.378906 852.882812 912.941406 854.675781 912.941406 857.132812 C 912.941406 859.589844 912.378906 861.433594 911.253906 862.609375 C 910.074219 863.785156 908.335938 864.402344 905.980469 864.402344 C 903.625 864.402344 901.886719 863.785156 900.761719 862.609375 C 899.632812 861.433594 899.070312 859.539062 899.070312 857.027344 Z M 905.980469 852.320312 C 904.753906 852.320312 903.832031 852.675781 903.21875 853.496094 C 902.550781 854.265625 902.246094 855.441406 902.246094 857.027344 C 902.246094 858.71875 902.550781 860 903.164062 860.765625 C 903.78125 861.585938 904.703125 861.996094 905.980469 861.996094 C 907.261719 861.996094 908.234375 861.585938 908.847656 860.816406 C 909.460938 860 909.769531 858.769531 909.769531 857.132812 C 909.769531 855.492188 909.460938 854.265625 908.847656 853.496094 C 908.234375 852.726562 907.261719 852.320312 905.980469 852.320312 Z M 914.9375 850.21875 L 918.621094 850.21875 L 924.304688 860.203125 L 924.148438 850.21875 L 927.117188 850.21875 L 927.117188 864.09375 L 923.742188 864.09375 L 917.804688 853.597656 L 917.90625 864.09375 L 914.9375 864.09375 Z M 914.9375 850.21875 " fill-opacity="1" fill-rule="nonzero"/><path fill="#000000" d="M 393.039062 792.777344 L 393.039062 769.074219 L 411.464844 769.074219 L 411.464844 773.117188 L 398.464844 773.117188 L 398.464844 778.699219 L 409.671875 778.699219 L 409.671875 782.742188 L 398.464844 782.742188 L 398.464844 792.777344 Z M 415.914062 792.777344 L 415.914062 769.074219 L 427.328125 769.074219 C 430.195312 769.074219 432.292969 769.328125 433.574219 769.738281 C 434.90625 770.148438 435.929688 770.914062 436.695312 771.992188 C 437.515625 773.066406 437.871094 774.347656 437.871094 775.726562 C 437.871094 777.519531 437.308594 778.953125 436.132812 780.132812 C 434.957031 781.308594 433.164062 782.027344 430.808594 782.332031 C 431.988281 782.945312 432.960938 783.5625 433.726562 784.328125 C 434.496094 785.046875 435.519531 786.328125 436.796875 788.167969 L 440.074219 792.777344 L 433.574219 792.777344 L 429.683594 787.605469 C 428.300781 785.761719 427.328125 784.585938 426.816406 784.125 C 426.304688 783.664062 425.742188 783.304688 425.179688 783.152344 C 424.617188 783 423.695312 782.894531 422.46875 782.894531 L 421.339844 782.894531 L 421.339844 792.777344 Z M 421.339844 779.109375 L 425.382812 779.109375 C 427.945312 779.109375 429.582031 779.003906 430.246094 778.800781 C 430.859375 778.648438 431.371094 778.289062 431.730469 777.828125 C 432.140625 777.367188 432.292969 776.753906 432.292969 776.035156 C 432.292969 775.214844 432.039062 774.601562 431.578125 774.089844 C 431.117188 773.628906 430.402344 773.320312 429.53125 773.167969 C 429.070312 773.117188 427.789062 773.117188 425.589844 773.117188 L 421.339844 773.117188 Z M 442.890625 792.777344 L 442.890625 788.21875 L 448.058594 788.21875 L 448.058594 792.777344 Z M 480.96875 784.023438 L 486.238281 785.457031 C 485.421875 788.066406 484.089844 790.011719 482.195312 791.292969 C 480.355469 792.519531 477.949219 793.1875 475.082031 793.1875 C 471.5 793.1875 468.582031 792.113281 466.277344 789.960938 C 463.976562 787.8125 462.851562 784.839844 462.851562 781.105469 C 462.851562 777.160156 464.027344 774.140625 466.328125 771.941406 C 468.632812 769.738281 471.652344 768.664062 475.390625 768.664062 C 478.714844 768.664062 481.378906 769.535156 483.425781 771.222656 C 484.652344 772.246094 485.574219 773.730469 486.1875 775.625 L 480.8125 776.753906 C 480.507812 775.523438 479.84375 774.550781 478.816406 773.835938 C 477.792969 773.117188 476.566406 772.757812 475.132812 772.757812 C 473.136719 772.757812 471.550781 773.375 470.269531 774.652344 C 469.042969 775.933594 468.429688 777.929688 468.429688 780.796875 C 468.429688 783.765625 469.042969 785.917969 470.269531 787.144531 C 471.5 788.425781 473.085938 789.089844 475.03125 789.089844 C 476.464844 789.089844 477.742188 788.679688 478.765625 787.863281 C 479.789062 787.042969 480.558594 785.761719 480.96875 784.023438 Z M 489.769531 781.054688 C 489.769531 778.648438 490.179688 776.648438 491 775.011719 C 491.613281 773.78125 492.433594 772.707031 493.507812 771.734375 C 494.582031 770.761719 495.707031 770.046875 496.988281 769.585938 C 498.625 768.96875 500.570312 768.664062 502.769531 768.664062 C 506.710938 768.664062 509.886719 769.738281 512.292969 771.941406 C 514.644531 774.089844 515.824219 777.109375 515.824219 780.949219 C 515.824219 784.789062 514.644531 787.8125 512.292969 789.960938 C 509.9375 792.113281 506.761719 793.1875 502.824219 793.1875 C 498.832031 793.1875 495.65625 792.113281 493.300781 789.960938 C 490.949219 787.8125 489.769531 784.839844 489.769531 781.054688 Z M 495.351562 780.898438 C 495.351562 783.613281 496.066406 785.660156 497.449219 787.042969 C 498.882812 788.425781 500.671875 789.089844 502.824219 789.089844 C 504.972656 789.089844 506.761719 788.425781 508.144531 787.042969 C 509.527344 785.660156 510.242188 783.613281 510.242188 780.847656 C 510.242188 778.132812 509.578125 776.085938 508.195312 774.753906 C 506.867188 773.425781 505.074219 772.757812 502.824219 772.757812 C 500.570312 772.757812 498.777344 773.425781 497.398438 774.808594 C 496.066406 776.136719 495.351562 778.1875 495.351562 780.898438 Z M 520.070312 792.777344 L 520.070312 769.074219 L 525.34375 769.074219 L 536.347656 784.945312 L 536.347656 769.074219 L 541.414062 769.074219 L 541.414062 792.777344 L 535.9375 792.777344 L 525.085938 777.214844 L 525.085938 792.777344 Z M 564.292969 784.023438 L 569.5625 785.457031 C 568.746094 788.066406 567.414062 790.011719 565.519531 791.292969 C 563.675781 792.519531 561.273438 793.1875 558.40625 793.1875 C 554.824219 793.1875 551.90625 792.113281 549.601562 789.960938 C 547.300781 787.8125 546.171875 784.839844 546.171875 781.105469 C 546.171875 777.160156 547.300781 774.140625 549.601562 771.941406 C 551.90625 769.738281 554.976562 768.664062 558.714844 768.664062 C 561.988281 768.664062 564.703125 769.535156 566.75 771.222656 C 567.976562 772.246094 568.847656 773.730469 569.460938 775.625 L 564.136719 776.753906 C 563.78125 775.523438 563.113281 774.550781 562.140625 773.835938 C 561.117188 773.117188 559.890625 772.757812 558.457031 772.757812 C 556.460938 772.757812 554.824219 773.375 553.59375 774.652344 C 552.367188 775.933594 551.753906 777.929688 551.753906 780.796875 C 551.753906 783.765625 552.367188 785.917969 553.59375 787.144531 C 554.824219 788.425781 556.410156 789.089844 558.355469 789.089844 C 559.789062 789.089844 561.015625 788.679688 562.089844 787.863281 C 563.113281 787.042969 563.832031 785.761719 564.292969 784.023438 Z M 574.222656 792.777344 L 574.222656 769.074219 L 594.078125 769.074219 L 594.078125 773.117188 L 579.644531 773.117188 L 579.644531 778.339844 L 593.054688 778.339844 L 593.054688 782.332031 L 579.644531 782.332031 L 579.644531 788.785156 L 594.589844 788.785156 L 594.589844 792.777344 Z M 599.042969 792.777344 L 599.042969 769.074219 L 604.46875 769.074219 L 604.46875 792.777344 Z M 626.785156 784.023438 L 632.054688 785.457031 C 631.238281 788.066406 629.90625 790.011719 628.011719 791.292969 C 626.171875 792.519531 623.765625 793.1875 620.898438 793.1875 C 617.316406 793.1875 614.398438 792.113281 612.09375 789.960938 C 609.792969 787.8125 608.667969 784.839844 608.667969 781.105469 C 608.667969 777.160156 609.792969 774.140625 612.09375 771.941406 C 614.449219 769.738281 617.46875 768.664062 621.207031 768.664062 C 624.53125 768.664062 627.195312 769.535156 629.242188 771.222656 C 630.46875 772.246094 631.339844 773.730469 631.953125 775.625 L 626.632812 776.753906 C 626.273438 775.523438 625.660156 774.550781 624.636719 773.835938 C 623.613281 773.117188 622.382812 772.757812 620.949219 772.757812 C 618.953125 772.757812 617.367188 773.375 616.085938 774.652344 C 614.859375 775.933594 614.246094 777.929688 614.246094 780.796875 C 614.246094 783.765625 614.859375 785.917969 616.085938 787.144531 C 617.316406 788.425781 618.902344 789.089844 620.847656 789.089844 C 622.28125 789.089844 623.507812 788.679688 624.582031 787.863281 C 625.605469 787.042969 626.375 785.761719 626.785156 784.023438 Z M 660.871094 792.777344 L 655.035156 792.777344 L 652.734375 787.402344 L 641.933594 787.402344 L 639.734375 792.777344 L 633.949219 792.777344 L 644.390625 769.074219 L 650.125 769.074219 Z M 650.941406 783.355469 L 647.207031 774.601562 L 643.625 783.355469 Z M 662.664062 781.054688 C 662.664062 778.648438 663.074219 776.648438 663.890625 775.011719 C 664.503906 773.78125 665.324219 772.707031 666.398438 771.734375 C 667.421875 770.761719 668.601562 770.046875 669.878906 769.585938 C 671.515625 768.96875 673.460938 768.664062 675.664062 768.664062 C 679.605469 768.664062 682.777344 769.738281 685.132812 771.941406 C 687.539062 774.089844 688.714844 777.109375 688.714844 780.949219 C 688.714844 784.789062 687.539062 787.8125 685.183594 789.960938 C 682.828125 792.113281 679.65625 793.1875 675.714844 793.1875 C 671.722656 793.1875 668.550781 792.113281 666.195312 789.960938 C 663.839844 787.8125 662.664062 784.839844 662.664062 781.054688 Z M 668.242188 780.898438 C 668.242188 783.613281 668.957031 785.660156 670.339844 787.042969 C 671.773438 788.425781 673.566406 789.089844 675.714844 789.089844 C 677.863281 789.089844 679.65625 788.425781 681.039062 787.042969 C 682.417969 785.660156 683.136719 783.613281 683.136719 780.847656 C 683.136719 778.132812 682.46875 776.085938 681.089844 774.753906 C 679.757812 773.425781 677.964844 772.757812 675.714844 772.757812 C 673.460938 772.757812 671.671875 773.425781 670.289062 774.808594 C 668.90625 776.136719 668.242188 778.1875 668.242188 780.898438 Z M 703.351562 792.777344 L 703.351562 769.074219 L 714.765625 769.074219 C 717.632812 769.074219 719.730469 769.328125 721.011719 769.738281 C 722.339844 770.148438 723.363281 770.914062 724.132812 771.992188 C 724.949219 773.066406 725.308594 774.347656 725.308594 775.726562 C 725.308594 777.519531 724.746094 778.953125 723.570312 780.132812 C 722.390625 781.308594 720.601562 782.027344 718.246094 782.332031 C 719.421875 782.945312 720.394531 783.5625 721.164062 784.328125 C 721.929688 785.046875 722.953125 786.328125 724.234375 788.167969 L 727.511719 792.777344 L 721.011719 792.777344 L 717.121094 787.605469 C 715.738281 785.761719 714.765625 784.585938 714.253906 784.125 C 713.742188 783.664062 713.230469 783.304688 712.617188 783.152344 C 712.054688 783 711.132812 782.894531 709.902344 782.894531 L 708.777344 782.894531 L 708.777344 792.777344 Z M 708.777344 779.109375 L 712.820312 779.109375 C 715.429688 779.109375 717.019531 779.003906 717.683594 778.800781 C 718.296875 778.648438 718.808594 778.289062 719.21875 777.828125 C 719.578125 777.367188 719.730469 776.753906 719.730469 776.035156 C 719.730469 775.214844 719.527344 774.601562 719.015625 774.089844 C 718.554688 773.628906 717.835938 773.320312 716.964844 773.167969 C 716.558594 773.117188 715.226562 773.117188 713.027344 773.117188 L 708.777344 773.117188 Z M 729.300781 781.054688 C 729.300781 778.648438 729.710938 776.648438 730.53125 775.011719 C 731.144531 773.78125 731.964844 772.707031 733.039062 771.734375 C 734.113281 770.761719 735.238281 770.046875 736.519531 769.585938 C 738.207031 768.96875 740.101562 768.664062 742.300781 768.664062 C 746.242188 768.664062 749.414062 769.738281 751.820312 771.941406 C 754.175781 774.089844 755.351562 777.109375 755.351562 780.949219 C 755.351562 784.789062 754.175781 787.8125 751.820312 789.960938 C 749.46875 792.113281 746.34375 793.1875 742.351562 793.1875 C 738.359375 793.1875 735.1875 792.113281 732.832031 789.960938 C 730.480469 787.8125 729.300781 784.839844 729.300781 781.054688 Z M 734.878906 780.898438 C 734.878906 783.613281 735.597656 785.660156 737.03125 787.042969 C 738.410156 788.425781 740.203125 789.089844 742.351562 789.089844 C 744.554688 789.089844 746.292969 788.425781 747.675781 787.042969 C 749.109375 785.660156 749.773438 783.613281 749.773438 780.847656 C 749.773438 778.132812 749.109375 776.085938 747.726562 774.753906 C 746.394531 773.425781 744.605469 772.757812 742.351562 772.757812 C 740.152344 772.757812 738.308594 773.425781 736.980469 774.808594 C 735.597656 776.136719 734.878906 778.1875 734.878906 780.898438 Z M 759.601562 769.074219 L 769.480469 769.074219 C 771.730469 769.074219 773.421875 769.226562 774.597656 769.535156 C 776.132812 769.941406 777.515625 770.660156 778.640625 771.734375 C 779.765625 772.757812 780.585938 774.039062 781.199219 775.574219 C 781.761719 777.058594 782.070312 778.953125 782.070312 781.15625 C 782.070312 783.101562 781.761719 784.789062 781.25 786.222656 C 780.585938 787.914062 779.613281 789.296875 778.386719 790.371094 C 777.414062 791.191406 776.132812 791.804688 774.546875 792.265625 C 773.367188 792.625 771.78125 792.777344 769.785156 792.777344 L 759.601562 792.777344 Z M 765.027344 773.117188 L 765.027344 788.785156 L 769.070312 788.785156 C 770.554688 788.785156 771.679688 788.679688 772.34375 788.527344 C 773.214844 788.375 773.933594 788.015625 774.496094 787.554688 C 775.109375 787.09375 775.570312 786.328125 775.929688 785.300781 C 776.285156 784.226562 776.492188 782.792969 776.492188 780.949219 C 776.492188 779.109375 776.285156 777.726562 775.929688 776.753906 C 775.570312 775.726562 775.058594 775.011719 774.394531 774.449219 C 773.726562 773.886719 772.910156 773.527344 771.882812 773.320312 C 771.117188 773.167969 769.632812 773.117188 767.484375 773.117188 Z M 786.675781 792.777344 L 786.675781 769.074219 L 798.089844 769.074219 C 800.957031 769.074219 803.054688 769.328125 804.332031 769.738281 C 805.664062 770.148438 806.6875 770.914062 807.457031 771.992188 C 808.273438 773.066406 808.632812 774.347656 808.632812 775.726562 C 808.632812 777.519531 808.070312 778.953125 806.894531 780.132812 C 805.714844 781.308594 803.925781 782.027344 801.570312 782.332031 C 802.746094 782.945312 803.71875 783.5625 804.488281 784.328125 C 805.253906 785.046875 806.277344 786.328125 807.558594 788.167969 L 810.835938 792.777344 L 804.332031 792.777344 L 800.445312 787.605469 C 799.0625 785.761719 798.089844 784.585938 797.578125 784.125 C 797.066406 783.664062 796.503906 783.304688 795.941406 783.152344 C 795.378906 783 794.457031 782.894531 793.226562 782.894531 L 792.101562 782.894531 L 792.101562 792.777344 Z M 792.101562 779.109375 L 796.144531 779.109375 C 798.703125 779.109375 800.339844 779.003906 801.007812 778.800781 C 801.621094 778.648438 802.132812 778.289062 802.492188 777.828125 C 802.851562 777.367188 803.054688 776.753906 803.054688 776.035156 C 803.054688 775.214844 802.796875 774.601562 802.335938 774.089844 C 801.824219 773.628906 801.160156 773.320312 800.289062 773.167969 C 799.828125 773.117188 798.550781 773.117188 796.347656 773.117188 L 792.101562 773.117188 Z M 813.546875 792.777344 L 813.546875 769.074219 L 818.972656 769.074219 L 818.972656 792.777344 Z M 836.628906 784.074219 L 836.628906 780.082031 L 848.300781 780.082031 L 848.300781 789.5 C 847.171875 790.472656 845.535156 791.34375 843.386719 792.113281 C 841.234375 792.828125 839.035156 793.1875 836.835938 793.1875 C 834.019531 793.1875 831.5625 792.675781 829.515625 791.652344 C 827.417969 790.625 825.832031 789.089844 824.804688 787.195312 C 823.730469 785.25 823.21875 783.152344 823.21875 780.847656 C 823.21875 778.390625 823.835938 776.1875 824.960938 774.242188 C 826.136719 772.347656 827.878906 770.863281 830.128906 769.839844 C 831.871094 769.074219 833.96875 768.664062 836.527344 768.664062 C 839.855469 768.664062 842.464844 769.277344 844.359375 770.507812 C 846.25 771.734375 847.429688 773.476562 847.992188 775.625 L 842.566406 776.546875 C 842.207031 775.371094 841.492188 774.449219 840.417969 773.78125 C 839.394531 773.117188 838.113281 772.757812 836.527344 772.757812 C 834.171875 772.757812 832.277344 773.425781 830.898438 774.753906 C 829.515625 776.085938 828.796875 778.03125 828.796875 780.644531 C 828.796875 783.460938 829.515625 785.609375 830.949219 786.992188 C 832.332031 788.375 834.222656 789.089844 836.476562 789.089844 C 837.601562 789.089844 838.777344 788.886719 839.90625 788.527344 C 841.03125 788.117188 842.003906 787.65625 842.824219 787.09375 L 842.824219 784.074219 Z M 853.316406 769.074219 L 858.738281 769.074219 L 858.738281 781.921875 C 858.738281 783.972656 858.84375 785.300781 858.945312 785.867188 C 859.199219 786.839844 859.710938 787.65625 860.582031 788.21875 C 861.453125 788.835938 862.628906 789.089844 864.164062 789.089844 C 865.648438 789.089844 866.828125 788.835938 867.59375 788.273438 C 868.363281 787.707031 868.824219 787.042969 868.976562 786.222656 C 869.128906 785.40625 869.230469 784.074219 869.230469 782.179688 L 869.230469 769.074219 L 874.65625 769.074219 L 874.65625 781.566406 C 874.65625 784.378906 874.503906 786.378906 874.195312 787.554688 C 873.941406 788.734375 873.378906 789.757812 872.609375 790.574219 C 871.84375 791.34375 870.769531 792.007812 869.4375 792.46875 C 868.15625 792.980469 866.417969 793.1875 864.320312 793.1875 C 861.761719 793.1875 859.816406 792.929688 858.484375 792.417969 C 857.203125 791.90625 856.128906 791.242188 855.363281 790.371094 C 854.59375 789.550781 854.082031 788.679688 853.878906 787.757812 C 853.519531 786.378906 853.316406 784.378906 853.316406 781.71875 Z M 880.390625 792.777344 L 880.390625 769.074219 L 900.25 769.074219 L 900.25 773.117188 L 885.816406 773.117188 L 885.816406 778.339844 L 899.277344 778.339844 L 899.277344 782.332031 L 885.816406 782.332031 L 885.816406 788.785156 L 900.8125 788.785156 L 900.8125 792.777344 Z M 903.984375 785.097656 L 909.257812 784.636719 C 909.5625 786.222656 910.230469 787.351562 911.203125 788.066406 C 912.171875 788.785156 913.453125 789.191406 915.089844 789.191406 C 916.832031 789.191406 918.160156 788.835938 919.03125 788.167969 C 919.902344 787.554688 920.363281 786.785156 920.363281 785.917969 C 920.363281 785.351562 920.15625 784.894531 919.800781 784.484375 C 919.441406 784.074219 918.777344 783.765625 917.855469 783.460938 C 917.242188 783.253906 915.808594 782.894531 913.554688 782.433594 C 910.636719 781.769531 908.640625 781 907.464844 780.082031 C 905.828125 778.75 905.007812 777.160156 905.007812 775.269531 C 905.007812 774.089844 905.367188 772.964844 906.132812 771.890625 C 906.902344 770.863281 908.027344 770.046875 909.511719 769.484375 C 910.945312 768.917969 912.6875 768.664062 914.785156 768.664062 C 918.109375 768.664062 920.667969 769.328125 922.359375 770.660156 C 924.046875 771.941406 924.917969 773.730469 925.019531 775.882812 L 919.59375 776.085938 C 919.339844 774.859375 918.878906 773.988281 918.109375 773.425781 C 917.34375 772.914062 916.21875 772.65625 914.683594 772.65625 C 913.144531 772.65625 911.917969 772.914062 911.046875 773.476562 C 910.433594 773.886719 910.175781 774.347656 910.175781 774.960938 C 910.175781 775.523438 910.433594 776.035156 910.996094 776.394531 C 911.660156 776.90625 913.300781 777.46875 915.960938 777.980469 C 918.570312 778.542969 920.515625 779.109375 921.796875 779.722656 C 923.023438 780.285156 924.046875 781.105469 924.714844 782.128906 C 925.429688 783.152344 925.789062 784.378906 925.789062 785.867188 C 925.789062 787.246094 925.378906 788.527344 924.507812 789.707031 C 923.691406 790.882812 922.460938 791.753906 920.875 792.316406 C 919.339844 792.929688 917.394531 793.1875 915.039062 793.1875 C 911.660156 793.1875 909.050781 792.519531 907.261719 791.140625 C 905.417969 789.757812 904.34375 787.757812 903.984375 785.097656 Z M 410.183594 820.988281 L 415.457031 822.421875 C 414.636719 825.03125 413.304688 826.976562 411.410156 828.207031 C 409.519531 829.484375 407.164062 830.097656 404.296875 830.097656 C 400.714844 830.097656 397.796875 829.023438 395.496094 826.875 C 393.191406 824.722656 392.015625 821.804688 392.015625 818.066406 C 392.015625 814.125 393.191406 811.054688 395.496094 808.902344 C 397.796875 806.703125 400.816406 805.628906 404.605469 805.628906 C 407.878906 805.628906 410.542969 806.445312 412.589844 808.1875 C 413.816406 809.210938 414.738281 810.644531 415.351562 812.539062 L 409.980469 813.664062 C 409.671875 812.4375 409.007812 811.464844 408.035156 810.796875 C 407.011719 810.082031 405.78125 809.722656 404.347656 809.722656 C 402.351562 809.722656 400.714844 810.335938 399.488281 811.617188 C 398.257812 812.847656 397.644531 814.894531 397.644531 817.710938 C 397.644531 820.730469 398.257812 822.828125 399.433594 824.109375 C 400.664062 825.390625 402.25 826.003906 404.246094 826.003906 C 405.679688 826.003906 406.90625 825.59375 407.933594 824.828125 C 409.007812 824.007812 409.722656 822.726562 410.183594 820.988281 Z M 418.988281 818.015625 C 418.988281 815.609375 419.394531 813.5625 420.214844 811.925781 C 420.777344 810.746094 421.648438 809.621094 422.671875 808.699219 C 423.746094 807.726562 424.925781 807.007812 426.152344 806.550781 C 427.839844 805.933594 429.785156 805.628906 431.9375 805.628906 C 435.929688 805.628906 439.101562 806.703125 441.457031 808.851562 C 443.808594 811.054688 445.039062 814.074219 445.039062 817.914062 C 445.039062 821.753906 443.859375 824.722656 441.507812 826.925781 C 439.152344 829.074219 435.980469 830.152344 432.039062 830.152344 C 428.046875 830.152344 424.871094 829.074219 422.519531 826.925781 C 420.164062 824.773438 418.988281 821.804688 418.988281 818.015625 Z M 424.566406 817.863281 C 424.566406 820.527344 425.230469 822.574219 426.664062 823.957031 C 428.046875 825.339844 429.835938 826.054688 432.039062 826.054688 C 434.1875 826.054688 435.980469 825.339844 437.359375 824.007812 C 438.742188 822.625 439.460938 820.527344 439.460938 817.8125 C 439.460938 815.097656 438.742188 813.050781 437.414062 811.71875 C 436.03125 810.390625 434.238281 809.722656 432.039062 809.722656 C 429.785156 809.722656 427.996094 810.390625 426.613281 811.71875 C 425.230469 813.101562 424.566406 815.148438 424.566406 817.863281 Z M 449.390625 829.742188 L 449.390625 806.242188 L 454.8125 806.242188 L 454.8125 825.695312 L 468.273438 825.695312 L 468.273438 829.742188 Z M 472.316406 829.742188 L 472.316406 806.242188 L 477.742188 806.242188 L 477.742188 825.695312 L 491.203125 825.695312 L 491.203125 829.742188 Z M 495.042969 829.742188 L 495.042969 806.035156 L 514.902344 806.035156 L 514.902344 810.03125 L 500.46875 810.03125 L 500.46875 815.304688 L 513.929688 815.304688 L 513.929688 819.296875 L 500.46875 819.296875 L 500.46875 825.695312 L 515.464844 825.695312 L 515.464844 829.742188 Z M 532.558594 821.039062 L 532.558594 817.042969 L 544.230469 817.042969 L 544.230469 826.464844 C 543.050781 827.4375 541.414062 828.308594 539.265625 829.023438 C 537.113281 829.792969 534.964844 830.152344 532.710938 830.152344 C 529.949219 830.152344 527.492188 829.640625 525.394531 828.613281 C 523.296875 827.539062 521.757812 826.054688 520.683594 824.109375 C 519.660156 822.164062 519.097656 820.066406 519.097656 817.8125 C 519.097656 815.304688 519.710938 813.152344 520.890625 811.207031 C 522.066406 809.3125 523.753906 807.828125 526.007812 806.804688 C 527.746094 805.984375 529.898438 805.628906 532.457031 805.628906 C 535.785156 805.628906 538.394531 806.242188 540.238281 807.46875 C 542.128906 808.699219 543.308594 810.390625 543.871094 812.589844 L 538.445312 813.460938 C 538.085938 812.335938 537.371094 811.414062 536.347656 810.695312 C 535.324219 810.03125 533.992188 809.722656 532.457031 809.722656 C 530.050781 809.722656 528.207031 810.390625 526.777344 811.71875 C 525.394531 813.050781 524.726562 814.996094 524.726562 817.609375 C 524.726562 820.421875 525.394531 822.523438 526.828125 823.957031 C 528.261719 825.339844 530.101562 826.054688 532.40625 826.054688 C 533.53125 826.054688 534.65625 825.851562 535.785156 825.441406 C 536.960938 825.082031 537.933594 824.570312 538.753906 824.007812 L 538.753906 821.039062 Z M 549.246094 829.742188 L 549.246094 806.035156 L 569.101562 806.035156 L 569.101562 810.03125 L 554.667969 810.03125 L 554.667969 815.304688 L 568.078125 815.304688 L 568.078125 819.296875 L 554.667969 819.296875 L 554.667969 825.695312 L 569.613281 825.695312 L 569.613281 829.742188 Z M 593.925781 818.015625 C 593.925781 815.609375 594.335938 813.5625 595.15625 811.925781 C 595.769531 810.746094 596.585938 809.621094 597.664062 808.699219 C 598.738281 807.726562 599.863281 807.007812 601.140625 806.550781 C 602.78125 805.933594 604.726562 805.628906 606.925781 805.628906 C 610.867188 805.628906 614.039062 806.703125 616.445312 808.851562 C 618.800781 811.054688 619.976562 814.074219 619.976562 817.914062 C 619.976562 821.753906 618.800781 824.722656 616.445312 826.925781 C 614.089844 829.074219 610.917969 830.152344 606.976562 830.152344 C 602.984375 830.152344 599.8125 829.074219 597.457031 826.925781 C 595.101562 824.773438 593.925781 821.804688 593.925781 818.015625 Z M 599.503906 817.863281 C 599.503906 820.527344 600.222656 822.574219 601.601562 823.957031 C 603.035156 825.339844 604.828125 826.054688 606.976562 826.054688 C 609.125 826.054688 610.917969 825.339844 612.300781 824.007812 C 613.683594 822.625 614.398438 820.527344 614.398438 817.8125 C 614.398438 815.097656 613.734375 813.050781 612.351562 811.71875 C 611.019531 810.390625 609.230469 809.722656 606.976562 809.722656 C 604.726562 809.722656 602.933594 810.390625 601.550781 811.71875 C 600.222656 813.101562 599.503906 815.148438 599.503906 817.863281 Z M 624.226562 829.742188 L 624.226562 806.035156 L 642.652344 806.035156 L 642.652344 810.03125 L 629.652344 810.03125 L 629.652344 815.660156 L 640.910156 815.660156 L 640.910156 819.65625 L 629.652344 819.65625 L 629.652344 829.742188 Z M 667.933594 829.742188 L 667.933594 806.035156 L 687.792969 806.035156 L 687.792969 810.03125 L 673.359375 810.03125 L 673.359375 815.304688 L 686.769531 815.304688 L 686.769531 819.296875 L 673.359375 819.296875 L 673.359375 825.695312 L 688.355469 825.695312 L 688.355469 829.742188 Z M 692.960938 829.742188 L 692.960938 806.035156 L 698.183594 806.035156 L 709.238281 821.90625 L 709.238281 806.035156 L 714.253906 806.035156 L 714.253906 829.742188 L 708.828125 829.742188 L 697.976562 814.175781 L 697.976562 829.742188 Z M 732.527344 821.039062 L 732.527344 817.042969 L 744.144531 817.042969 L 744.144531 826.464844 C 743.019531 827.4375 741.378906 828.308594 739.230469 829.023438 C 737.082031 829.792969 734.878906 830.152344 732.679688 830.152344 C 729.863281 830.152344 727.460938 829.640625 725.359375 828.613281 C 723.261719 827.539062 721.726562 826.054688 720.652344 824.109375 C 719.628906 822.164062 719.066406 820.066406 719.066406 817.8125 C 719.066406 815.304688 719.679688 813.152344 720.855469 811.207031 C 722.035156 809.3125 723.722656 807.828125 725.976562 806.804688 C 727.714844 805.984375 729.863281 805.628906 732.421875 805.628906 C 735.75 805.628906 738.359375 806.242188 740.203125 807.46875 C 742.097656 808.699219 743.273438 810.390625 743.835938 812.589844 L 738.410156 813.460938 C 738.054688 812.335938 737.335938 811.414062 736.3125 810.695312 C 735.238281 810.03125 733.960938 809.722656 732.371094 809.722656 C 730.019531 809.722656 728.175781 810.390625 726.742188 811.71875 C 725.359375 813.050781 724.644531 814.996094 724.644531 817.609375 C 724.644531 820.421875 725.359375 822.523438 726.792969 823.957031 C 728.226562 825.339844 730.070312 826.054688 732.320312 826.054688 C 733.5 826.054688 734.625 825.851562 735.75 825.441406 C 736.875 825.082031 737.847656 824.570312 738.667969 824.007812 L 738.667969 821.039062 Z M 749.007812 829.742188 L 749.007812 806.035156 L 754.433594 806.035156 L 754.433594 829.742188 Z M 759.601562 829.742188 L 759.601562 806.035156 L 764.871094 806.035156 L 775.929688 821.90625 L 775.929688 806.035156 L 780.945312 806.035156 L 780.945312 829.742188 L 775.519531 829.742188 L 764.617188 814.175781 L 764.617188 829.742188 Z M 786.675781 829.742188 L 786.675781 806.035156 L 806.535156 806.035156 L 806.535156 810.03125 L 792.101562 810.03125 L 792.101562 815.304688 L 805.511719 815.304688 L 805.511719 819.296875 L 792.101562 819.296875 L 792.101562 825.695312 L 807.046875 825.695312 L 807.046875 829.742188 Z M 811.703125 829.742188 L 811.703125 806.035156 L 831.5625 806.035156 L 831.5625 810.03125 L 817.128906 810.03125 L 817.128906 815.304688 L 830.539062 815.304688 L 830.539062 819.296875 L 817.128906 819.296875 L 817.128906 825.695312 L 832.074219 825.695312 L 832.074219 829.742188 Z M 836.679688 829.742188 L 836.679688 806.035156 L 848.09375 806.035156 C 850.960938 806.035156 853.058594 806.242188 854.339844 806.703125 C 855.667969 807.113281 856.691406 807.878906 857.460938 808.957031 C 858.28125 810.03125 858.636719 811.257812 858.636719 812.691406 C 858.636719 814.433594 858.074219 815.917969 856.898438 817.09375 C 855.71875 818.222656 853.929688 818.988281 851.574219 819.246094 C 852.75 819.859375 853.722656 820.527344 854.492188 821.242188 C 855.257812 821.960938 856.285156 823.238281 857.5625 825.082031 L 860.839844 829.742188 L 854.339844 829.742188 L 850.449219 824.570312 C 849.066406 822.726562 848.09375 821.550781 847.582031 821.089844 C 847.070312 820.628906 846.558594 820.269531 845.945312 820.117188 C 845.382812 819.910156 844.460938 819.808594 843.230469 819.808594 L 842.105469 819.808594 L 842.105469 829.742188 Z M 842.105469 816.070312 L 846.148438 816.070312 C 848.707031 816.070312 850.347656 815.96875 851.011719 815.765625 C 851.625 815.558594 852.136719 815.253906 852.496094 814.792969 C 852.90625 814.28125 853.058594 813.714844 853.058594 813 C 853.058594 812.179688 852.804688 811.566406 852.34375 811.054688 C 851.882812 810.542969 851.164062 810.234375 850.296875 810.132812 C 849.886719 810.082031 848.554688 810.03125 846.355469 810.03125 L 842.105469 810.03125 Z M 863.550781 829.742188 L 863.550781 806.035156 L 869.027344 806.035156 L 869.027344 829.742188 Z M 874.195312 829.742188 L 874.195312 806.035156 L 879.417969 806.035156 L 890.472656 821.90625 L 890.472656 806.035156 L 895.488281 806.035156 L 895.488281 829.742188 L 890.0625 829.742188 L 879.210938 814.175781 L 879.210938 829.742188 Z M 913.761719 821.039062 L 913.761719 817.042969 L 925.378906 817.042969 L 925.378906 826.464844 C 924.253906 827.4375 922.613281 828.308594 920.464844 829.023438 C 918.316406 829.792969 916.113281 830.152344 913.914062 830.152344 C 911.097656 830.152344 908.695312 829.640625 906.59375 828.613281 C 904.496094 827.539062 902.960938 826.054688 901.886719 824.109375 C 900.863281 822.164062 900.300781 820.066406 900.300781 817.8125 C 900.300781 815.304688 900.914062 813.152344 902.089844 811.207031 C 903.269531 809.3125 904.957031 807.828125 907.210938 806.804688 C 908.949219 805.984375 911.097656 805.628906 913.65625 805.628906 C 916.984375 805.628906 919.59375 806.242188 921.4375 807.46875 C 923.332031 808.699219 924.507812 810.390625 925.070312 812.589844 L 919.644531 813.460938 C 919.289062 812.335938 918.570312 811.414062 917.546875 810.695312 C 916.472656 810.03125 915.195312 809.722656 913.605469 809.722656 C 911.253906 809.722656 909.410156 810.390625 907.976562 811.71875 C 906.59375 813.050781 905.878906 814.996094 905.878906 817.609375 C 905.878906 820.421875 906.59375 822.523438 908.027344 823.957031 C 909.460938 825.339844 911.304688 826.054688 913.605469 826.054688 C 914.734375 826.054688 915.859375 825.851562 916.984375 825.441406 C 918.109375 825.082031 919.082031 824.570312 919.902344 824.007812 L 919.902344 821.039062 Z M 913.761719 821.039062 " fill-opacity="1" fill-rule="nonzero"/></svg>